<svg width="25" height="19" viewBox="0 0 25 19" fill="none" xmlns="http://www.w3.org/2000/svg">
<path d="M0.375 18L7.375 0.349999H10.925L17.85 18H13.7L8.4 3.35H9.825L4.45 18H0.375ZM4.35 14.8V11.6H13.975V14.8H4.35ZM21.9873 18.275C21.3373 18.275 20.7956 18.05 20.3623 17.6C19.929 17.15 19.7123 16.6083 19.7123 15.975C19.7123 15.3083 19.929 14.7583 20.3623 14.325C20.7956 13.875 21.3373 13.65 21.9873 13.65C22.654 13.65 23.1956 13.875 23.6123 14.325C24.0456 14.7583 24.2623 15.3083 24.2623 15.975C24.2623 16.6083 24.0456 17.15 23.6123 17.6C23.1956 18.05 22.654 18.275 21.9873 18.275Z" fill="#FF9800"/>
</svg>
